# xmcd CD database file
#
# Track frame offsets:
#	150
#	13396
#	27397
#	40718
#	53784
#	67485
#	80703
#	94149
#	106451
#	128690
#	144624
#	158943
#	170456
#	183083
#	194428
#	205970
#	215899
#
# Disc length: 3069 seconds
#
# Revision: 1
# Processed by: cddbd v1.5.2PL0 Copyright (c) Steve Scherf et al.
# Submitted via: CDex 1.51
#
DISCID=040bfb11
DTITLE=Muggsy Spanier - Sentimental Journey [CD3)
DYEAR=2005
DGENRE=Jazz
TTITLE0=Tin Roof Blues
TTITLE1=Muskrat Rabmle
TTITLE2=Bugle Call Rag
TTITLE3=That's A Plenty
TTITLE4=Feather Brain Blues
TTITLE5=Lucky To Me
TTITLE6=Tin Roof Blues
TTITLE7=Cherry
TTITLE8=China Boy
TTITLE9=Royal Garden Blues
TTITLE10=You Took Advantage Of Me
TTITLE11=Pee Wee Squawks
TTITLE12=Sentimental Journey
TTITLE13=Muggsy Special
TTITLE14=You're Driving Me Crazy
TTITLE15=Am I Blue?
TTITLE16=How Come You Do Me Like You Do
EXTD=YEAR: 2005
EXTT0=
EXTT1=
EXTT2=
EXTT3=
EXTT4=
EXTT5=
EXTT6=
EXTT7=
EXTT8=
EXTT9=
EXTT10=
EXTT11=
EXTT12=
EXTT13=
EXTT14=
EXTT15=
EXTT16=
PLAYORDER=
